<svg xmlns="http://www.w3.org/2000/svg" width="24" height="23" viewBox="0 0 24 23" fill="none">
<path d="M11.9671 13.0048C15.4176 13.0048 18.1848 10.2034 18.1848 6.78705C18.1848 3.37071 15.4176 0.535156 11.9671 0.535156C8.5166 0.535156 5.74937 3.33655 5.74937 6.75288C5.74937 10.1692 8.5166 13.0048 11.9671 13.0048ZM11.9671 2.17499C14.4952 2.17499 16.545 4.2248 16.545 6.75288C16.545 9.28097 14.4952 11.3308 11.9671 11.3308C9.43901 11.3308 7.38921 9.31513 7.38921 6.78705C7.38921 4.25896 9.43901 2.17499 11.9671 2.17499ZM1.17148 22.7413H22.831C23.2752 22.7413 23.651 22.3655 23.651 21.9214C23.651 17.6168 20.1321 14.098 15.8276 14.098H8.17496C3.87038 14.098 0.351562 17.6168 0.351562 21.9214C0.351562 22.3655 0.727362 22.7413 1.17148 22.7413ZM8.17496 15.7378H15.8276C18.9706 15.7378 21.5328 18.0609 21.9428 21.1015H2.05973C2.46969 18.0609 5.03194 15.7378 8.17496 15.7378Z" fill="#ba3931"/>
</svg>