<svg width="14" height="12" viewBox="0 0 14 12" fill="none" xmlns="http://www.w3.org/2000/svg">
<path d="M6.95342 3.36605L6.96035 1.34019C6.96104 1.13752 6.88415 0.93459 6.73031 0.778896C6.57646 0.623994 6.37406 0.546509 6.1714 0.545816C5.96873 0.545123 5.7658 0.62122 5.6109 0.775066L0.612155 5.67266L5.57727 10.6036C5.73112 10.7585 5.93352 10.8367 6.13618 10.8374C6.33885 10.8381 6.54178 10.7612 6.69668 10.6074C6.85158 10.4535 6.92986 10.2503 6.93055 10.0485L6.9373 8.07802C9.11418 8.1393 11.4918 8.54169 13.2598 11.2576L13.2625 10.466C13.275 6.7982 10.5145 3.77249 6.95342 3.36605Z" fill="black"/>
</svg>
