<svg width="28" height="28" viewBox="0 0 28 28" fill="none" xmlns="http://www.w3.org/2000/svg">
    <path
        d="M26.6562 7.53125L14.4688 0.96875C14.1875 0.78125 13.8125 0.78125 13.625 0.96875L1.4375 7.53125C1.0625 7.71875 0.875 8 0.875 8.375V11.1875C0.875 11.75 1.25 12.125 1.8125 12.125H26.1875C26.75 12.125 27.125 11.75 27.125 11.1875V8.375C27.125 8 26.9375 7.71875 26.6562 7.53125Z"
        fill="black" />
    <path
        d="M14.9375 21.5C15.5 21.5 15.875 21.125 15.875 20.5625V14C15.875 13.4375 15.5 13.0625 14.9375 13.0625H13.0625C12.5 13.0625 12.125 13.4375 12.125 14V20.5625C12.125 21.125 12.5 21.5 13.0625 21.5H14.9375Z"
        fill="black" />
    <path
        d="M22.4375 21.5C23 21.5 23.375 21.125 23.375 20.5625V14C23.375 13.4375 23 13.0625 22.4375 13.0625H20.5625C20 13.0625 19.625 13.4375 19.625 14V20.5625C19.625 21.125 20 21.5 20.5625 21.5H22.4375Z"
        fill="black" />
    <path
        d="M7.4375 21.5C8 21.5 8.375 21.125 8.375 20.5625V14C8.375 13.4375 8 13.0625 7.4375 13.0625H5.5625C5 13.0625 4.625 13.4375 4.625 14V20.5625C4.625 21.125 5 21.5 5.5625 21.5H7.4375Z"
        fill="black" />
    <path
        d="M26.1875 22.4375H1.8125C1.25 22.4375 0.875 22.8125 0.875 23.375V26.1875C0.875 26.75 1.25 27.125 1.8125 27.125H26.1875C26.75 27.125 27.125 26.75 27.125 26.1875V23.375C27.125 22.8125 26.75 22.4375 26.1875 22.4375Z"
        fill="black" />
</svg>
