<svg width="18" height="22" viewBox="0 0 18 22" fill="none" xmlns="http://www.w3.org/2000/svg">
<path d="M8.98885 21.5006C10.6212 21.5006 11.5135 20.3458 11.5135 18.7188H6.45898C6.45898 20.3458 7.35126 21.5006 8.98885 21.5006Z" fill="black"/>
<path d="M17.1833 16.052C16.375 14.9865 14.7846 14.3619 14.7846 9.59087C14.7846 4.69384 12.6222 2.72558 10.6067 2.2532C10.4177 2.20596 10.2813 2.14298 10.2813 1.94353V1.79131C10.2813 1.08799 9.70391 0.494887 9.00058 0.500136C8.29726 0.489639 7.7199 1.08799 7.7199 1.79131V1.94353C7.7199 2.13773 7.58344 2.20596 7.39448 2.2532C5.37374 2.73083 3.21652 4.69384 3.21652 9.59087C3.21652 14.3619 1.62617 14.9813 0.817873 16.052C0.298252 16.7396 0.791629 17.7211 1.65242 17.7211H9.02158H16.354C17.2095 17.7211 17.7029 16.7343 17.1833 16.052Z" fill="black"/>
</svg>
