<svg width="24" height="24" viewBox="0 0 24 24" fill="none" xmlns="http://www.w3.org/2000/svg">
<path d="M11.9889 22.5006C13.6212 22.5006 14.5135 21.3458 14.5135 19.7188H9.45898C9.45898 21.3458 10.3513 22.5006 11.9889 22.5006Z" fill="black"/>
<path d="M20.1833 17.052C19.375 15.9865 17.7846 15.3619 17.7846 10.5909C17.7846 5.69384 15.6222 3.72558 13.6067 3.2532C13.4177 3.20596 13.2813 3.14298 13.2813 2.94353V2.79131C13.2813 2.08799 12.7039 1.49489 12.0006 1.50014C11.2973 1.48964 10.7199 2.08799 10.7199 2.79131V2.94353C10.7199 3.13773 10.5834 3.20596 10.3945 3.2532C8.37374 3.73083 6.21652 5.69384 6.21652 10.5909C6.21652 15.3619 4.62617 15.9813 3.81787 17.052C3.29825 17.7396 3.79163 18.7211 4.65242 18.7211H12.0216H19.354C20.2095 18.7211 20.7029 17.7343 20.1833 17.052Z" fill="black"/>
<circle cx="21" cy="3" r="3" fill="#E63946"/>
</svg>
