<svg width="19" height="19" viewBox="0 0 19 19" fill="none" xmlns="http://www.w3.org/2000/svg">
    <g clip-path="url(#clip0_2_1391)">
        <path
            d="M16.7363 13.9531H15.0664V2.26367C15.0664 1.82078 14.8905 1.39603 14.5773 1.08286C14.2641 0.769688 13.8394 0.59375 13.3965 0.59375L3.37695 0.59375C2.93406 0.59375 2.50931 0.769688 2.19614 1.08286C1.88297 1.39603 1.70703 1.82078 1.70703 2.26367V4.49023C1.70703 4.63786 1.76568 4.77945 1.87007 4.88384C1.97446 4.98823 2.11604 5.04688 2.26367 5.04688H3.93359V16.7363C3.93359 17.1792 4.10953 17.604 4.4227 17.9171C4.73587 18.2303 5.16062 18.4062 5.60352 18.4062H15.623C16.0659 18.4062 16.4907 18.2303 16.8039 17.9171C17.117 17.604 17.293 17.1792 17.293 16.7363V14.5098C17.293 14.3621 17.2343 14.2206 17.1299 14.1162C17.0255 14.0118 16.884 13.9531 16.7363 13.9531Z"
            fill="#0956C6" />
        <path
            d="M10.0566 7.27344H8.94336C8.79573 7.27344 8.65415 7.21479 8.54976 7.1104C8.44536 7.00601 8.38672 6.86443 8.38672 6.7168C8.38672 6.56917 8.44536 6.42758 8.54976 6.32319C8.65415 6.2188 8.79573 6.16016 8.94336 6.16016H10.6133C10.7609 6.16016 10.9025 6.10151 11.0069 5.99712C11.1113 5.89273 11.1699 5.75115 11.1699 5.60352C11.1699 5.45589 11.1113 5.3143 11.0069 5.20991C10.9025 5.10552 10.7609 5.04688 10.6133 5.04688H10.0566V4.76855C10.0566 4.62092 9.998 4.47934 9.8936 4.37495C9.78921 4.27056 9.64763 4.21191 9.5 4.21191C9.35237 4.21191 9.21079 4.27056 9.1064 4.37495C9.00201 4.47934 8.94336 4.62092 8.94336 4.76855V5.04688C8.50047 5.04688 8.07572 5.22281 7.76255 5.53598C7.44937 5.84915 7.27344 6.27391 7.27344 6.7168C7.27344 7.15969 7.44937 7.58444 7.76255 7.89761C8.07572 8.21078 8.50047 8.38672 8.94336 8.38672H10.0566C10.2043 8.38672 10.3459 8.44536 10.4502 8.54976C10.5546 8.65415 10.6133 8.79573 10.6133 8.94336C10.6133 9.09099 10.5546 9.23257 10.4502 9.33696C10.3459 9.44135 10.2043 9.5 10.0566 9.5H8.38672C8.23909 9.5 8.0975 9.55865 7.99311 9.66304C7.88872 9.76743 7.83008 9.90901 7.83008 10.0566C7.83008 10.2043 7.88872 10.3459 7.99311 10.4502C8.0975 10.5546 8.23909 10.6133 8.38672 10.6133H8.94336V10.8916C8.94336 11.0392 9.00201 11.1808 9.1064 11.2852C9.21079 11.3896 9.35237 11.4482 9.5 11.4482C9.64763 11.4482 9.78921 11.3896 9.8936 11.2852C9.998 11.1808 10.0566 11.0392 10.0566 10.8916V10.6133C10.4995 10.6133 10.9243 10.4373 11.2375 10.1242C11.5506 9.811 11.7266 9.38625 11.7266 8.94336C11.7266 8.50047 11.5506 8.07572 11.2375 7.76255C10.9243 7.44938 10.4995 7.27344 10.0566 7.27344Z"
            fill="white" />
    </g>
    <defs>
        <clipPath id="clip0_2_1391">
            <rect width="17.8125" height="17.8125" fill="white"
                transform="translate(0.59375 0.59375)" />
        </clipPath>
    </defs>
</svg>
