<svg width="24" height="28" viewBox="0 0 24 28" fill="none" xmlns="http://www.w3.org/2000/svg">
<path d="M22.6641 20.5625H20.2031V3.33594C20.2031 2.68326 19.9438 2.05731 19.4823 1.59579C19.0208 1.13428 18.3949 0.875 17.7422 0.875L2.97656 0.875C2.32388 0.875 1.69793 1.13428 1.23642 1.59579C0.774902 2.05731 0.515625 2.68326 0.515625 3.33594V6.61719C0.515625 6.83475 0.60205 7.0434 0.755889 7.19724C0.909727 7.35107 1.11838 7.4375 1.33594 7.4375H3.79688V24.6641C3.79688 25.3167 4.05615 25.9427 4.51767 26.4042C4.97918 26.8657 5.60513 27.125 6.25781 27.125H21.0234C21.6761 27.125 22.3021 26.8657 22.7636 26.4042C23.2251 25.9427 23.4844 25.3167 23.4844 24.6641V21.3828C23.4844 21.1653 23.398 20.9566 23.2441 20.8028C23.0903 20.6489 22.8816 20.5625 22.6641 20.5625Z" fill="white"/>
<path d="M12.8203 10.7188H11.1797C10.9621 10.7188 10.7535 10.6323 10.5996 10.4785C10.4458 10.3246 10.3594 10.116 10.3594 9.89844C10.3594 9.68088 10.4458 9.47223 10.5996 9.31839C10.7535 9.16455 10.9621 9.07812 11.1797 9.07812H13.6406C13.8582 9.07812 14.0668 8.9917 14.2207 8.83786C14.3745 8.68402 14.4609 8.47537 14.4609 8.25781C14.4609 8.04025 14.3745 7.8316 14.2207 7.67776C14.0668 7.52393 13.8582 7.4375 13.6406 7.4375H12.8203V7.02734C12.8203 6.80978 12.7339 6.60113 12.58 6.4473C12.4262 6.29346 12.2176 6.20703 12 6.20703C11.7824 6.20703 11.5738 6.29346 11.42 6.4473C11.2661 6.60113 11.1797 6.80978 11.1797 7.02734V7.4375C10.527 7.4375 9.90106 7.69678 9.43954 8.15829C8.97803 8.61981 8.71875 9.24576 8.71875 9.89844C8.71875 10.5511 8.97803 11.1771 9.43954 11.6386C9.90106 12.1001 10.527 12.3594 11.1797 12.3594H12.8203C13.0379 12.3594 13.2465 12.4458 13.4004 12.5996C13.5542 12.7535 13.6406 12.9621 13.6406 13.1797C13.6406 13.3972 13.5542 13.6059 13.4004 13.7597C13.2465 13.9136 13.0379 14 12.8203 14H10.3594C10.1418 14 9.93317 14.0864 9.77933 14.2403C9.62549 14.3941 9.53906 14.6028 9.53906 14.8203C9.53906 15.0379 9.62549 15.2465 9.77933 15.4004C9.93317 15.5542 10.1418 15.6406 10.3594 15.6406H11.1797V16.0508C11.1797 16.2683 11.2661 16.477 11.42 16.6308C11.5738 16.7847 11.7824 16.8711 12 16.8711C12.2176 16.8711 12.4262 16.7847 12.58 16.6308C12.7339 16.477 12.8203 16.2683 12.8203 16.0508V15.6406C13.473 15.6406 14.0989 15.3813 14.5605 14.9198C15.022 14.4583 15.2812 13.8324 15.2812 13.1797C15.2812 12.527 15.022 11.9011 14.5605 11.4395C14.0989 10.978 13.473 10.7188 12.8203 10.7188Z" fill="#B1B1B1"/>
</svg>
