<svg width="29" height="25" viewBox="0 0 29 25" fill="none" xmlns="http://www.w3.org/2000/svg">
<g clip-path="url(#clip0_97_2054)">
<path d="M26.8579 1.56515C24.194 1.71701 18.8993 2.26974 15.6307 4.27951C15.4051 4.41818 15.2773 4.66476 15.2773 4.92257V22.6897C15.2773 23.2536 15.8912 23.6101 16.409 23.3484C19.7719 21.6482 24.6354 21.1843 27.0402 21.0573C27.8612 21.0139 28.4995 20.3528 28.4995 19.5603V3.06418C28.5 2.19943 27.7533 1.51437 26.8579 1.56515ZM13.3688 4.27951C10.1007 2.26974 4.80597 1.7175 2.14208 1.56515C1.24667 1.51437 0.5 2.19943 0.5 3.06418V19.5608C0.5 20.3537 1.13826 21.0149 1.95931 21.0578C4.36507 21.1848 9.23104 21.6491 12.594 23.3503C13.1102 23.6115 13.7222 23.2556 13.7222 22.6931V4.91378C13.7222 4.65548 13.5949 4.41867 13.3688 4.27951Z" fill="white"/>
</g>
<defs>
<clipPath id="clip0_97_2054">
<rect width="28" height="25" fill="white" transform="translate(0.5)"/>
</clipPath>
</defs>
</svg>
