<svg width="24" height="28" viewBox="0 0 24 28" fill="none" xmlns="http://www.w3.org/2000/svg">
<path d="M0.00902377 9.69629C-0.0659344 8.20767 0.32786 6.73726 1.12474 5.50438L1.33232 5.20123L1.34947 5.18462L1.49358 5.01552L1.64455 4.84286L1.66171 4.82506C1.94993 4.52959 2.26903 4.26971 2.61329 4.0478L2.71051 3.98625L2.80772 3.92914L3.03647 3.79742C3.12911 3.75351 3.22976 3.7013 3.3224 3.65739C3.38988 3.63129 3.45736 3.59688 3.52484 3.57077C3.6518 3.51737 3.78676 3.46516 3.92172 3.42125C3.96746 3.3987 4.0155 3.3809 4.06468 3.36904L4.11929 3.34708L4.17905 3.32513C4.79438 3.1412 5.42686 3.01423 6.06621 2.95608L6 2.96384V1.63765C6 1.10591 6.42892 0.675968 6.9594 0.675968C7.48988 0.675968 7.92 1.10591 7.92 1.63765V5.82931C7.92 6.36105 7.48988 6.79219 6.9594 6.79219C6.42892 6.79219 6 6.36105 6 5.82931L6.00006 4.86023C5.37026 4.92329 4.75185 5.07999 4.16533 5.32821C2.65178 6.00911 1.92993 7.30581 1.86153 9.36076L1.85614 9.69154V10.2077H22.1447V9.67849C22.1836 8.72679 21.9926 7.77984 21.5877 6.92426C21.1989 6.19209 20.5767 5.62368 19.8252 5.31515C19.3467 5.10915 18.8455 4.96542 18.3333 4.88701L18 4.8465L18 5.82447C18 6.35392 17.5704 6.78275 17.04 6.78275C16.5096 6.78275 16.08 6.35392 16.08 5.82447L16.08 4.7745L7.92934 4.77523V2.86827L16.08 2.86784L16.08 1.63201C16.0752 1.10256 16.5024 0.670142 17.0328 0.666526C17.5632 0.662955 17.9964 1.08819 18 1.61764L18.0008 2.95646C18.4666 3.00242 18.9287 3.08369 19.3834 3.1998L19.8355 3.3275C19.8721 3.33462 19.8996 3.34412 19.9499 3.36192C20.0002 3.37972 20.0426 3.39752 20.0929 3.41413C20.2267 3.45804 20.3514 3.51025 20.4806 3.56365C20.5549 3.58976 20.6236 3.62417 20.6819 3.65027C20.7825 3.69418 20.8855 3.74639 20.9678 3.7903C21.0525 3.83421 21.1337 3.88286 21.2046 3.92202C21.2755 3.96118 21.3304 4.00509 21.3899 4.04068C21.6489 4.208 21.8951 4.39668 22.125 4.60422L22.3495 4.81794L22.3597 4.83574L22.5166 5.00217L22.664 5.1775L22.672 5.19411C23.5345 6.38698 23.9985 7.83565 24 9.31987L23.9907 9.69154V10.2077H24V20.5467C24 25.0553 21.4821 27.3332 16.4921 27.3332H7.49642C2.51788 27.3332 1.78795e-09 25.0553 1.78795e-09 20.5467V10.2077H0.00902377V9.69629ZM17.4878 19.6615C16.8698 19.6615 16.3777 20.1691 16.3777 20.7946C16.3891 21.4201 16.8813 21.9276 17.4878 21.9276C18.0944 21.9276 18.5866 21.4201 18.5866 20.7946C18.5866 20.1691 18.0944 19.6615 17.4878 19.6615ZM12.0057 19.6497C11.3877 19.6615 10.8956 20.1691 10.8956 20.7946C10.8956 21.4201 11.3991 21.9276 12.0057 21.9276C12.6123 21.9276 13.1044 21.4201 13.1044 20.7828C13.093 20.1691 12.6123 19.6615 12.0057 19.6497ZM6.51216 19.6497C5.89413 19.6497 5.402 20.1691 5.41345 20.7946C5.41345 21.4201 5.90558 21.9276 6.51216 21.9276C7.11874 21.9276 7.61087 21.4083 7.61087 20.7828C7.61087 20.1572 7.11874 19.6497 6.51216 19.6497ZM17.4878 14.8225C16.8698 14.8225 16.3891 15.33 16.3891 15.9556C16.3891 16.5811 16.8813 17.0886 17.4878 17.0886C18.0944 17.0886 18.5866 16.5811 18.5866 15.9556C18.5866 15.33 18.0944 14.8225 17.4878 14.8225ZM12.0057 14.8107C11.3877 14.8225 10.8956 15.33 10.8956 15.9556C10.8956 16.5811 11.3991 17.0886 12.0057 17.0886C12.6123 17.0886 13.1044 16.5811 13.1044 15.9438C13.1044 15.33 12.6123 14.8225 12.0057 14.8107ZM6.52361 14.8107C5.90558 14.8107 5.41345 15.33 5.41345 15.9556C5.41345 16.5811 5.90558 17.0886 6.51216 17.0886C7.13019 17.0886 7.62232 16.5693 7.61087 15.9438C7.61087 15.3182 7.11874 14.8107 6.52361 14.8107Z" fill="white"/>
</svg>
