<svg id="Capa_1" enable-background="new 0 0 512 512" height="512" viewBox="0 0 512 512" width="512" xmlns="http://www.w3.org/2000/svg"><g><g><path d="m281.996 114.474-17.576-30.442c-6.29-10.896-20.298-14.462-31.009-7.896-17.999 11.031-32.145 27.361-40.506 46.55-32.889-15.041-69.606-14.122-100.759.027-8.359-19.205-22.511-35.549-40.522-46.588-10.687-6.549-24.702-3.029-31.009 7.896l-17.575 30.443c-3.619 6.27-4.026 13.671-1.117 20.308 2.878 6.564 8.521 11.226 15.481 12.788 10.083 2.266 19.819 6.409 28.54 12.104-7.688 10.158-13.81 21.585-18.029 33.955-1.685 4.942-1.046 10.382 1.547 14.822-11.299 52.557 14.828 104.681 61.825 127.95-9.327 11.891-14.008 26.27-14.008 40.651 0 6.568 4.016 12.555 10.093 15.069-.793 9.212 5.8 17.445 15.01 18.626v4.611c0 13.133 10.685 23.817 23.817 23.817 6.31 0 12.051-2.472 16.317-6.492 4.266 4.02 10.007 6.492 16.317 6.492 13.133 0 23.817-10.685 23.817-23.817v-4.611c9.208-1.181 15.803-9.412 15.01-18.626 5.917-2.449 10.093-8.278 10.093-15.069 0-8.288-1.659-14.758-1.659-14.758-2.175-9.512-6.389-18.294-12.342-25.879 4.52-2.24 8.914-4.768 13.139-7.612 3.436-2.312 4.347-6.974 2.034-10.409-2.313-3.438-6.974-4.349-10.41-2.034-16.525 11.123-35.89 17.002-56.001 17.002-62.631 0-110.596-56.856-98.922-119.091h37.208c39.292 0 76.376-14.385 105.234-40.659l28.738 28.739c7.181 7.18 16.573 11.345 26.639 11.862 5.791 30.757-3.076 61.042-22.157 83.569-2.677 3.161-2.286 7.894.875 10.57 3.162 2.679 7.894 2.284 10.57-.875 22.319-26.348 32.733-62.362 24.861-99.005 2.603-4.442 3.246-9.895 1.556-14.848-4.17-12.224-10.288-23.685-18.042-33.931 8.726-5.701 18.469-9.849 28.556-12.115 14.687-3.296 21.932-19.987 14.366-33.094zm-146.978 300.876c0 4.862-3.955 8.817-8.817 8.817s-8.817-3.955-8.817-8.817v-4.466h17.634zm32.634 0c0 4.862-3.956 8.817-8.817 8.817s-8.817-3.955-8.817-8.817v-4.466h17.634zm-74.09-49.721.009.002c1.999-8.746 6.22-16.693 12.285-23.225 11.525 3.854 23.853 5.946 36.661 5.946 12.605 0 24.955-2.028 36.667-5.935 6.071 6.536 10.294 14.479 12.29 23.211.85 3.721 1.281 7.561 1.281 11.414 0 .72-.586 1.306-1.306 1.306h-.392l-7.84-11.759c-2.296-3.446-6.955-4.378-10.4-2.08-3.446 2.298-4.378 6.954-2.08 10.4 6.603 9.905 4.971 7.457 11.609 17.413 1.013 1.52-.06 3.561-1.906 3.561h-75.845c-1.829 0-2.928-2.026-1.906-3.561l11.609-17.412c2.298-3.447 1.367-8.104-2.08-10.401-3.444-2.296-8.103-1.366-10.401 2.079l-8.231 11.76c-.72 0-1.306-.586-1.306-1.306.001-3.723.456-7.775 1.282-11.413zm-72.87-232.704c-4.811-1.081-7.16-6.632-4.662-10.961l17.576-30.442c2.072-3.588 6.677-4.752 10.18-2.606 15.726 9.639 27.995 24.014 35.063 40.883-8.447 5.194-16.179 11.384-23.048 18.418-10.635-7.242-22.642-12.492-35.109-15.292zm222.374 66.332c-6.683-.122-12.947-2.782-17.687-7.522l-33.917-33.918c-2.926-2.926-7.678-2.929-10.606.001-26.725 26.726-62.259 41.444-100.055 41.444h-38.833c.008-.271.056-.54.145-.801 21.345-62.58 94.054-89.977 151.218-58.811 3.342 1.82 3.938 4.031 4.096 5.536.4 3.818 3.62 6.718 7.459 6.718 3.984 0 6.061-.268 8.18 1.615 20.851 18.54 29.909 43.096 30 45.738zm-13.844-51.022c-6.18-6.339-10.269-10.468-18.642-11.218-1.099-2.443-2.677-4.646-4.658-6.568 7.024-17.147 19.404-31.764 35.328-41.524 3.517-2.156 8.117-.968 10.181 2.606l17.575 30.441c2.503 4.334.143 9.882-4.662 10.962-12.471 2.802-24.483 8.054-35.122 15.301z"/><path d="m92.504 245.699v8.228c0 4.143 3.358 7.5 7.5 7.5s7.5-3.357 7.5-7.5v-8.228c0-4.143-3.358-7.5-7.5-7.5s-7.5 3.358-7.5 7.5z"/><path d="m178.135 245.699v8.228c0 4.143 3.358 7.5 7.5 7.5s7.5-3.357 7.5-7.5v-8.228c0-4.143-3.358-7.5-7.5-7.5s-7.5 3.358-7.5 7.5z"/><path d="m148.454 248.754c-1.423 1.634-3.477 2.57-5.634 2.57s-4.21-.937-5.634-2.57c-2.722-3.122-7.459-3.447-10.582-.727-3.123 2.722-3.448 7.459-.727 10.582 4.273 4.902 10.448 7.715 16.942 7.715s12.669-2.812 16.942-7.715c2.721-3.123 2.396-7.86-.727-10.582-3.121-2.72-7.859-2.396-10.58.727z"/><path d="m343.44 250.212v8.37c0 4.143 3.357 7.5 7.5 7.5s7.5-3.357 7.5-7.5v-8.37c0-4.143-3.357-7.5-7.5-7.5s-7.5 3.357-7.5 7.5z"/><path d="m430.56 250.212v8.37c0 4.143 3.357 7.5 7.5 7.5s7.5-3.357 7.5-7.5v-8.37c0-4.143-3.357-7.5-7.5-7.5s-7.5 3.357-7.5 7.5z"/><path d="m400.331 253.405c-1.474 1.689-3.599 2.659-5.831 2.659s-4.357-.969-5.83-2.658c-2.721-3.124-7.459-3.448-10.581-.728-3.123 2.721-3.449 7.459-.728 10.581 4.321 4.96 10.568 7.805 17.139 7.805 6.568 0 12.815-2.844 17.138-7.804 2.722-3.122 2.397-7.859-.726-10.581-3.121-2.723-7.86-2.397-10.581.726z"/><path d="m495.181 169.601c4.442-8.25 7.976-16.921 10.526-25.837 4.468-15.625-12.793-28.068-26.172-19.331-5.546 3.625-11.388 6.867-17.415 9.667-19.854-14.018-43.138-21.403-67.621-21.403-64.789 0-117.499 52.711-117.499 117.501 0 47.376 28.187 88.289 68.67 106.86-4.943 5.395-8.985 11.581-11.918 18.307-5.073 11.635-5.493 20.681-5.493 29.687 0 13.29 10.812 24.102 24.101 24.102h.333v5.361c0 13.594 11.059 24.652 24.651 24.652 6.66 0 12.712-2.655 17.152-6.962 4.44 4.307 10.492 6.962 17.152 6.962 13.593 0 24.651-11.059 24.651-24.652v-5.361h.341c13.289 0 24.101-10.812 24.101-24.102 0-9.005-.42-18.051-5.493-29.688-2.931-6.72-6.967-12.899-11.9-18.289 5.248-2.402 10.336-5.194 15.219-8.376 3.471-2.261 4.45-6.907 2.188-10.378-2.263-3.471-6.911-4.451-10.378-2.188-16.629 10.836-35.951 16.563-55.879 16.563-53.997 0-98.372-41.971-102.224-95.002l92.052-.021c.046 0 .093 0 .14-.001 23.414-.441 45.619-7.151 64.773-19.007 13.844 10.65 30.436 17.145 47.486 18.67-1.558 22.368-10.375 43.648-25.268 60.559-2.737 3.108-2.437 7.848.672 10.586 3.109 2.736 7.848 2.436 10.586-.672 18.883-21.443 29.283-49.005 29.284-77.61.001-21.48-5.8-42.331-16.818-60.597zm-142.489 215.451v9.102h-.333c-5.019 0-9.101-4.083-9.101-9.102 0-4.004.007-8.644 1.139-14.033 2.686 1.99 5.464 3.907 8.295 5.712zm68.608 29.463c0 5.322-4.329 9.652-9.651 9.652s-9.652-4.33-9.652-9.652v-7.127c0-4.143-3.357-7.5-7.5-7.5s-7.5 3.357-7.5 7.5v7.127c0 5.322-4.33 9.652-9.652 9.652s-9.651-4.33-9.651-9.652v-21.963h53.606zm23.324-43.513c.891 4.316 1.117 8.667 1.117 14.05 0 5.019-4.082 9.102-9.101 9.102h-.34v-9.102-8.317c2.841-1.812 5.629-3.736 8.324-5.733zm-83.433-28.122c10.565 3.128 21.742 4.816 33.308 4.816 11.378 0 22.585-1.632 33.325-4.804 4.478 3.845 8.249 8.434 11.167 13.533-4.384 3.481-9.152 6.776-14.027 9.678-2.272 1.352-3.664 3.801-3.664 6.444v5.004h-53.607v-5.007c0-2.644-1.392-5.092-3.663-6.444-4.873-2.901-9.638-6.194-14.021-9.674 2.921-5.104 6.697-9.697 11.182-13.546zm23.061-120.206-91.976.021c3.855-53.029 48.228-94.997 102.223-94.997 22.674 0 44.164 7.258 62.146 20.99 2.268 1.732 5.225 1.972 7.669.859 8.143-3.493 16.023-7.718 23.425-12.557 1.861-1.214 4.151.522 3.546 2.648-2.622 9.169-6.426 18.052-11.304 26.401-.041.07-.068.146-.107.217-20.287 34.565-56.009 55.648-95.622 56.418zm77.911-13.17c8.96-7.227 17.025-15.71 23.933-25.328 5.973 11.862 9.567 24.762 10.592 38.074-12.229-1.324-24.144-5.714-34.525-12.746z"/></g></g></svg>