<svg width="30" height="20" viewBox="0 0 30 20" fill="none" xmlns="http://www.w3.org/2000/svg">
    <path
        d="M24.375 8.75C21.2687 8.75 18.75 11.2688 18.75 14.375C18.75 17.4813 21.2687 20 24.375 20C27.4813 20 30 17.4813 30 14.375C30 11.2688 27.4813 8.75 24.375 8.75ZM23.7887 16.855L21.6788 14.8088L22.5487 13.9375L23.7875 15.1125L26.4325 12.4012L27.3025 13.2712L23.7887 16.855ZM5 13.75H11.25V15H5V13.75ZM15 12.5H5V11.25H15V12.5ZM16.8775 17.5H3.125C2.78 17.5 2.5 17.22 2.5 16.875V8.75H18.525C20.005 7.2125 22.0775 6.25 24.375 6.25C25.4825 6.25 26.5362 6.47375 27.5 6.87625V2.5C27.5 1.12 26.38 0 25 0H2.5C1.12 0 0 1.12 0 2.5V17.5C0 18.88 1.12 20 2.5 20H18.525C17.8337 19.28 17.2675 18.4363 16.8775 17.5ZM2.5 3.125C2.5 2.78 2.78 2.5 3.125 2.5H24.375C24.72 2.5 25 2.78 25 3.125V5H2.5V3.125Z"
        fill="black" />
</svg>
