<svg width="30" height="30" viewBox="0 0 30 30" fill="none" xmlns="http://www.w3.org/2000/svg">
    <path
        d="M28.75 10.87C28.0587 10.87 27.5 10.31 27.5 9.62V3.695C27.5 3.03625 26.9637 2.5 26.3062 2.5H20.3812C19.69 2.5 19.1312 1.94 19.1312 1.25C19.1312 0.56 19.69 0 20.3812 0H26.3062C28.3437 0 30 1.6575 30 3.695V9.62C30 10.31 29.4412 10.87 28.75 10.87Z"
        fill="black" />
    <path
        d="M1.25 10.87C0.55875 10.87 0 10.31 0 9.62V3.695C0 1.6575 1.65625 0 3.69375 0H9.61875C10.31 0 10.8687 0.56 10.8687 1.25C10.8687 1.94 10.31 2.5 9.61875 2.5H3.69375C3.03625 2.5 2.5 3.03625 2.5 3.695V9.62C2.5 10.31 1.94125 10.87 1.25 10.87Z"
        fill="black" />
    <path
        d="M26.3062 30H20.3812C19.69 30 19.1312 29.44 19.1312 28.75C19.1312 28.06 19.69 27.5 20.3812 27.5H26.3062C26.9637 27.5 27.5 26.9638 27.5 26.305V20.38C27.5 19.69 28.0587 19.13 28.75 19.13C29.4412 19.13 30 19.69 30 20.38V26.305C30 28.3425 28.3437 30 26.3062 30Z"
        fill="black" />
    <path
        d="M9.61875 30H3.69375C1.65625 30 0 28.3425 0 26.305V20.38C0 19.69 0.55875 19.13 1.25 19.13C1.94125 19.13 2.5 19.69 2.5 20.38V26.305C2.5 26.9638 3.03625 27.5 3.69375 27.5H9.61875C10.31 27.5 10.8687 28.06 10.8687 28.75C10.8687 29.44 10.31 30 9.61875 30Z"
        fill="black" />
    <path
        d="M11.8475 13.9487H5.625C4.93375 13.9487 4.375 13.3887 4.375 12.6987V5.625C4.375 4.935 4.93375 4.375 5.625 4.375H11.8475C12.5387 4.375 13.0975 4.935 13.0975 5.625V12.6987C13.0975 13.3887 12.5375 13.9487 11.8475 13.9487ZM6.875 11.4488H10.5975V6.875H6.875V11.4488Z"
        fill="black" />
    <path
        d="M24.375 25.625H18.4375C17.7463 25.625 17.1875 25.065 17.1875 24.375V20.3975C17.1875 19.7075 17.7463 19.1475 18.4375 19.1475C19.1287 19.1475 19.6875 19.7075 19.6875 20.3975V23.125H23.125V19.375H21.6475C20.9563 19.375 20.3975 18.815 20.3975 18.125C20.3975 17.435 20.9563 16.875 21.6475 16.875H24.375C25.0662 16.875 25.625 17.435 25.625 18.125V24.375C25.625 25.065 25.0662 25.625 24.375 25.625Z"
        fill="black" />
    <path
        d="M24.375 11.9887H19.2612C18.57 11.9887 18.0112 11.4287 18.0112 10.7387V5.625C18.0112 4.935 18.57 4.375 19.2612 4.375H24.375C25.0662 4.375 25.625 4.935 25.625 5.625V10.7387C25.625 11.4287 25.0662 11.9887 24.375 11.9887ZM20.5112 9.48875H23.125V6.875H20.5112V9.48875Z"
        fill="black" />
    <path
        d="M15.5975 17.67H5.625C4.93375 17.67 4.375 17.11 4.375 16.42C4.375 15.73 4.93375 15.17 5.625 15.17H14.3475V6.76123C14.3475 6.07123 14.9062 5.51123 15.5975 5.51123C16.2887 5.51123 16.8475 6.07123 16.8475 6.76123V16.42C16.8475 17.11 16.2875 17.67 15.5975 17.67Z"
        fill="black" />
    <path
        d="M19.0625 17.3575C18.3713 17.3575 17.8125 16.7975 17.8125 16.1075V14.4037C17.8125 13.7137 18.3713 13.1537 19.0625 13.1537H24.6875C25.3787 13.1537 25.9375 13.7137 25.9375 14.4037C25.9375 15.0937 25.3787 15.6537 24.6875 15.6537H20.3125V16.1075C20.3125 16.7975 19.7537 17.3575 19.0625 17.3575Z"
        fill="black" />
    <path
        d="M15.0275 24.0013C14.3362 24.0013 13.7775 23.4413 13.7775 22.7513V19.9113C13.7775 19.2213 14.3362 18.6613 15.0275 18.6613C15.7187 18.6613 16.2775 19.2213 16.2775 19.9113V22.7513C16.2775 23.4413 15.7187 24.0013 15.0275 24.0013Z"
        fill="black" />
    <path
        d="M11.5625 25.625H5.625C4.93375 25.625 4.375 25.065 4.375 24.375V19.83C4.375 19.14 4.93375 18.58 5.625 18.58H11.5625C12.2537 18.58 12.8125 19.14 12.8125 19.83V24.375C12.8125 25.065 12.2538 25.625 11.5625 25.625ZM6.875 23.125H10.3125V21.08H6.875V23.125Z"
        fill="black" />
</svg>
