<svg width="29" height="25" viewBox="0 0 29 25" fill="none" xmlns="http://www.w3.org/2000/svg">
<g clip-path="url(#clip0_97_2060)">
<path fill-rule="evenodd" clip-rule="evenodd" d="M9.03993 14.3615L13.0019 10.4309L4.33593 1.84757C3.66393 1.1809 2.50193 1.36146 2.08193 2.22257C1.08793 4.29201 1.45193 6.83368 3.17393 8.5559L9.03993 14.3615ZM18.5319 11.8476C20.6739 12.8337 23.6839 12.1392 25.9099 9.9309C28.5839 7.27812 29.1019 3.47257 27.0439 1.4309C24.9999 -0.596874 21.1639 -0.0968744 18.4759 2.5559C16.2499 4.76424 15.5499 7.75035 16.5439 9.87535L3.85993 22.4587C3.31393 23.0003 3.31393 23.8753 3.85993 24.417C4.40593 24.9587 5.28793 24.9587 5.83393 24.417L14.4999 15.8476L23.1519 24.4309C23.6979 24.9726 24.5799 24.9726 25.1259 24.4309C25.6719 23.8892 25.6719 23.0142 25.1259 22.4726L16.4739 13.8892L18.5319 11.8476Z" fill="white"/>
</g>
<defs>
<clipPath id="clip0_97_2060">
<rect width="28" height="25" fill="white" transform="translate(0.5)"/>
</clipPath>
</defs>
</svg>
