<svg width="27" height="27" viewBox="0 0 27 27" fill="none" xmlns="http://www.w3.org/2000/svg">
<path fill-rule="evenodd" clip-rule="evenodd" d="M8.33337 8.3335V3.16683C8.33337 1.74009 9.48997 0.583496 10.9167 0.583496H16.0834C17.5101 0.583496 18.6667 1.74009 18.6667 3.16683V8.3335H23.8334C25.2601 8.3335 26.4167 9.49009 26.4167 10.9168V16.0835C26.4167 17.5102 25.2601 18.6668 23.8334 18.6668H18.6667V23.8335C18.6667 25.2602 17.5101 26.4168 16.0834 26.4168H10.9167C9.48997 26.4168 8.33337 25.2602 8.33337 23.8335V18.6668H3.16671C1.73997 18.6668 0.583374 17.5102 0.583374 16.0835V10.9168C0.583374 9.49009 1.73997 8.3335 3.16671 8.3335H8.33337Z" fill="white"/>
</svg>
