<svg width="22" height="24" viewBox="0 0 22 24" fill="none" xmlns="http://www.w3.org/2000/svg">
    <path
        d="M9.056 21.5782H4.48327C3.00156 21.5728 1.80021 20.3758 1.78933 18.8942V9.79841C1.79224 9.3024 2.01419 8.83303 2.39571 8.51606L3.20091 7.91961C3.49487 7.60642 3.52476 7.12851 3.27212 6.78112C3.01948 6.43374 2.55561 6.31493 2.16708 6.49809L1.342 7.11441C0.509717 7.75839 0.0158163 8.7462 0 9.79841V18.9041C0.00546692 21.3779 2.00949 23.3819 4.48327 23.3874H9.056C9.55011 23.3874 9.95066 22.9868 9.95066 22.4927C9.95066 21.9986 9.55011 21.598 9.056 21.598V21.5782Z"
        fill="#CA382F" />
    <path
        d="M21.9995 9.45036C21.9888 8.38068 21.4953 7.37205 20.6549 6.70161L13.562 1.09211C12.0033 -0.150494 9.78299 -0.150494 8.22434 1.09211L5.97637 2.71082C5.55403 3.01163 5.45752 3.59505 5.76081 4.01393C6.0641 4.43282 6.65235 4.52853 7.07469 4.22773L9.35345 2.53775C10.2479 1.80743 11.5384 1.80743 12.4329 2.53775L19.5258 8.14725C19.934 8.4682 20.1752 8.95411 20.1827 9.47072V18.7961C20.1827 20.3142 18.9419 21.5449 17.4112 21.5449H15.307C15.0916 21.5449 14.9169 21.3717 14.9169 21.158V16.9534C14.9169 15.6136 13.8248 14.5259 12.4739 14.5203H9.39451C8.74387 14.5203 8.11987 14.7766 7.65979 15.2329C7.19972 15.6893 6.94125 16.3081 6.94125 16.9534V18.562C6.94125 19.068 7.35486 19.4782 7.86507 19.4782C8.37529 19.4782 8.78889 19.068 8.78889 18.562V16.9534C8.78614 16.7951 8.84765 16.6423 8.9596 16.5293C9.07155 16.4164 9.22456 16.3528 9.38425 16.3528H12.4637C12.7925 16.3528 13.059 16.6172 13.059 16.9433V21.158C13.0647 22.3854 14.0695 23.3774 15.307 23.3774H17.3599C19.9166 23.3774 21.9893 21.3217 21.9893 18.786L21.9995 9.45036Z"
        fill="#CA382F" />
</svg>
