<svg width="14" height="26" viewBox="0 0 14 26" fill="none" xmlns="http://www.w3.org/2000/svg">
<path d="M0.421131 10.1709C0.546706 10.5962 0.699063 10.9662 0.877999 11.2805C1.05683 11.5951 1.31296 11.9019 1.6469 12.2021C1.98043 12.502 2.28047 12.7436 2.54651 12.9273C2.8124 13.1111 3.17764 13.3166 3.64203 13.5441C4.10601 13.7715 4.47364 13.9407 4.74426 14.052C5.01523 14.1632 5.4072 14.3155 5.91992 14.509C6.3745 14.683 6.71296 14.8161 6.93565 14.9079C7.15809 14.9998 7.45061 15.1303 7.81336 15.2997C8.17596 15.4688 8.44683 15.6189 8.62581 15.7494C8.80475 15.8799 8.99573 16.0394 9.19891 16.228C9.40208 16.4166 9.54473 16.6174 9.62701 16.8302C9.70908 17.043 9.75025 17.2752 9.75025 17.5267C9.75025 18.1843 9.46017 18.7213 8.87981 19.1371C8.2994 19.5529 7.54965 19.7609 6.63068 19.7609C6.22463 19.7609 5.81066 19.7054 5.39017 19.594C4.96969 19.4827 4.60933 19.3573 4.30944 19.2169C4.0093 19.0765 3.72649 18.9217 3.4604 18.7526C3.19436 18.5832 3.00582 18.4552 2.89447 18.3681C2.78323 18.281 2.71274 18.223 2.68403 18.1939C2.5581 18.0972 2.42785 18.0634 2.29241 18.0924C2.14737 18.102 2.03603 18.1795 1.95848 18.3245L0.783016 20.4428C0.666995 20.6362 0.690982 20.82 0.855536 20.9942C0.913673 21.0522 0.98594 21.1199 1.0736 21.1973C1.1604 21.2748 1.3491 21.415 1.63953 21.6182C1.92966 21.8213 2.23676 22.0027 2.56059 22.1623C2.88477 22.3218 3.30565 22.4839 3.8232 22.6482C4.34044 22.8128 4.87502 22.924 5.42651 22.982V25.5357C5.42651 25.671 5.46996 25.7823 5.55676 25.8694C5.64377 25.9563 5.75506 26 5.8907 26H7.84959C7.97532 26 8.08413 25.9541 8.17601 25.8622C8.26789 25.7702 8.31383 25.6615 8.31383 25.5357V22.924C9.83252 22.634 11.0658 21.9859 12.0138 20.9799C12.9616 19.9739 13.4357 18.8036 13.4357 17.4686C13.4357 17.0721 13.3944 16.6949 13.3122 16.3371C13.2301 15.9791 13.1284 15.6575 13.0075 15.3722C12.8866 15.0867 12.7149 14.8063 12.4924 14.5305C12.27 14.2549 12.0595 14.0178 11.8613 13.8196C11.6629 13.6215 11.4042 13.4159 11.0851 13.2032C10.7658 12.9902 10.4925 12.8184 10.2652 12.6879C10.0377 12.5578 9.73551 12.4074 9.35838 12.2385C8.98114 12.0691 8.68359 11.9411 8.46593 11.8538C8.24827 11.7669 7.95088 11.6458 7.57349 11.4914C7.05122 11.2883 6.66422 11.131 6.41277 11.0197C6.16111 10.9084 5.84201 10.7537 5.45487 10.5554C5.06808 10.3573 4.78527 10.1759 4.60618 10.0114C4.42724 9.84687 4.26528 9.64374 4.12009 9.40199C3.9749 9.16024 3.90217 8.90391 3.90217 8.63294C3.90217 7.86876 4.19962 7.27885 4.79467 6.86325C5.38946 6.44718 6.07888 6.23923 6.86227 6.23923C7.21984 6.23923 7.57801 6.2777 7.93578 6.35505C9.19326 6.60686 10.3685 7.21141 11.4615 8.16895L11.4905 8.19797C11.5776 8.30408 11.6937 8.34769 11.8387 8.32822C11.9935 8.30891 12.1048 8.25083 12.1724 8.15391L13.6669 6.19532C13.8121 6.0019 13.8023 5.80366 13.6379 5.60053C13.5894 5.54244 13.5048 5.45518 13.384 5.33932C13.2628 5.22299 13.0379 5.04192 12.7092 4.79478C12.3804 4.548 12.0224 4.31616 11.6355 4.09825C11.2485 3.88069 10.7577 3.66557 10.1627 3.45269C9.5677 3.24016 8.95121 3.09029 8.31276 3.00329V0.464186C8.31276 0.338255 8.26677 0.229551 8.17494 0.137568C8.08301 0.0455322 7.97425 -0.000204086 7.84853 -0.000204086H5.88963C5.75399 -0.000204086 5.6427 0.0432472 5.55575 0.130199C5.46879 0.217152 5.4255 0.328445 5.4255 0.464134V3.00324C3.88723 3.25469 2.63702 3.91489 1.6747 4.98378C0.712276 6.05267 0.230912 7.32708 0.230912 8.80689C0.231421 9.29044 0.294184 9.74508 0.421131 10.1709Z" fill="white"/>
</svg>
