<svg width="130" height="166" viewBox="0 0 130 166" fill="none" xmlns="http://www.w3.org/2000/svg">
    <mask id="mask0_102_177" style="mask-type:luminance" maskUnits="userSpaceOnUse" x="0" y="0"
        width="117" height="158">
        <path d="M0.689941 0.197388H116.421V157.181H0.689941V0.197388Z" fill="white" />
    </mask>
    <g mask="url(#mask0_102_177)">
        <path
            d="M105.029 16.385C74.8608 -21.0829 47.1517 17.8115 61.5568 35.6388C70.01 46.1008 67.2385 70.6208 42.0987 70.6208C27.4693 70.6208 0.7229 84.2303 0.7229 112.583C0.7229 140.937 22.4207 156.773 46.244 156.773C114.872 156.773 130.24 47.6921 105.029 16.385Z"
            fill="#F9A92F" />
    </g>
    <mask id="mask1_102_177" style="mask-type:luminance" maskUnits="userSpaceOnUse" x="6" y="3"
        width="124" height="163">
        <path d="M6.13867 3.01062H129.363V165.889H6.13867V3.01062Z" fill="white" />
    </mask>
    <g mask="url(#mask1_102_177)">
        <path
            d="M114.068 22.46C83.8968 -15.0101 56.1876 23.8864 70.595 41.7115C79.046 52.1736 76.2766 76.6958 51.1346 76.6958C36.5053 76.6958 9.75659 90.3009 9.75659 118.656C9.75659 147.007 31.4567 162.845 55.2799 162.845C123.908 162.845 139.276 53.7671 114.068 22.46Z"
            stroke="#28213C" stroke-width="5" stroke-miterlimit="10" stroke-linecap="round"
            stroke-linejoin="round" />
    </g>
    <path
        d="M64.6517 138.246C64.6517 144.236 59.8009 149.091 53.8182 149.091C47.8354 149.091 42.9868 144.236 42.9868 138.246C42.9868 132.253 47.8354 127.397 53.8182 127.397C59.8009 127.397 64.6517 132.253 64.6517 138.246Z"
        fill="#ABD91A" />
    <path
        d="M89.2728 121.07C89.2728 127.059 84.4242 131.916 78.4414 131.916C72.4587 131.916 67.6079 127.059 67.6079 121.07C67.6079 115.08 72.4587 110.225 78.4414 110.225C84.4242 110.225 89.2728 115.08 89.2728 121.07Z"
        fill="#F03766" />
    <path
        d="M110.94 95.6309C110.94 101.62 106.091 106.475 100.108 106.475C94.1257 106.475 89.2727 101.62 89.2727 95.6309C89.2727 89.6372 94.1257 84.782 100.108 84.782C106.091 84.782 110.94 89.6372 110.94 95.6309Z"
        fill="#54C6D0" />
    <path
        d="M113.65 60.8313C113.65 66.8206 108.799 71.6758 102.816 71.6758C96.8335 71.6758 91.9849 66.8206 91.9849 60.8313C91.9849 54.8376 96.8335 49.9824 102.816 49.9824C108.799 49.9824 113.65 54.8376 113.65 60.8313Z"
        fill="white" />
</svg>
