<svg width="44" height="44" viewBox="0 0 44 44" fill="none" xmlns="http://www.w3.org/2000/svg">
    <path
        d="M0 16C0 7.16344 7.16344 0 16 0H28C36.8366 0 44 7.16344 44 16V28C44 36.8366 36.8366 44 28 44H16C7.16344 44 0 36.8366 0 28V16Z"
        fill="#CE323D" />
    <path opacity="0.4"
        d="M36.0989 17.6036C35.4393 17.6036 34.9021 17.0638 34.8933 16.392V14.6237C34.9148 13.1227 34.3488 11.6747 33.3203 10.5995C32.2918 9.52428 30.8855 8.91026 29.4118 8.89301H28.1258C27.4599 8.89301 26.9202 8.34322 26.9202 7.66501C26.9202 6.98681 27.4599 6.43701 28.1258 6.43701H29.4118C33.813 6.49081 37.3531 10.1404 37.3527 14.6237V16.3756C37.3614 16.6983 37.2416 17.0108 37.0206 17.2421C36.7996 17.4733 36.4962 17.6038 36.1793 17.6036H36.0989ZM7.96792 17.6037C7.64966 17.608 7.34295 17.4823 7.11638 17.2546C6.88981 17.0269 6.76228 16.7162 6.76231 16.392V14.6237C6.73652 12.4615 7.56176 10.3789 9.05379 8.84069C10.5458 7.3025 12.5804 6.43685 14.7033 6.43701H16.0214C16.6873 6.43701 17.227 6.98681 17.227 7.66501C17.227 8.34322 16.6873 8.89301 16.0214 8.89301H14.7194C13.2331 8.88838 11.8076 9.49333 10.7643 10.5714C9.72095 11.6496 9.1476 13.1101 9.17353 14.6237V16.392C9.16474 17.0638 8.62753 17.6037 7.96792 17.6037Z"
        fill="white" />
    <g filter="url(#filter0_d_97_2109)">
        <path
            d="M37.3039 24.8574V29.4583C37.2525 33.8845 33.7563 37.4674 29.4112 37.5467H28.1091C27.6481 37.6012 27.1974 37.3814 26.95 36.9814C26.7027 36.5814 26.7027 36.0724 26.95 35.6724C27.1974 35.2725 27.6481 35.0526 28.1091 35.1071H29.4112C32.4766 35.0981 34.957 32.5643 34.957 29.4419V24.8574H37.3039ZM17.2264 36.3351C17.2178 37.0096 16.683 37.5543 16.0208 37.5631H14.7027C10.3014 37.5093 6.76139 33.8597 6.7617 29.3764V24.8574H9.17293V29.4583C9.17288 32.5743 11.6435 35.1055 14.7027 35.1235H16.0208C16.3391 35.1191 16.6458 35.2448 16.8724 35.4725C17.0989 35.7002 17.2264 36.0109 17.2264 36.3351ZM40.3099 23.6294C40.3099 24.3076 39.7701 24.8574 39.1043 24.8574H4.89702C4.23118 24.8574 3.69141 24.3076 3.69141 23.6294C3.69141 22.9512 4.23118 22.4014 4.89702 22.4014H39.0561C39.3841 22.388 39.7033 22.5114 39.9399 22.7432C40.1766 22.975 40.3099 23.295 40.3099 23.6294Z"
            fill="white" />
    </g>
    <path opacity="0.4"
        d="M32.6657 18.6478V15.9724C32.6657 14.6798 32.1616 13.4401 31.2642 12.5261C30.3669 11.6121 29.1498 11.0986 27.8808 11.0986H16.2341C13.5915 11.0986 11.4492 13.2807 11.4492 15.9724V18.6478C11.4597 18.9639 11.7089 19.2178 12.0193 19.2285H32.0956C32.406 19.2178 32.6552 18.9639 32.6657 18.6478Z"
        fill="white" />
    <path
        d="M32.6657 24.7852V27.3428C32.6657 30.3065 30.5234 32.7091 27.8808 32.7091H16.2341C13.5915 32.7091 11.4492 30.3065 11.4492 27.3428V24.7852H32.6657Z"
        fill="white" />
    <path
        d="M20.1939 19.2598C20.1939 19.2598 20.1235 19.2613 20.1235 19.0919C20.1235 18.5131 20.5922 18.0445 21.1709 18.0445H23.5249C23.9581 18.0445 24.3842 18.1758 24.7392 18.4173C24.9558 18.5628 25.247 18.5273 25.4316 18.3463L26.6672 17.1391C26.9193 16.8941 26.8838 16.4858 26.6033 16.2692C25.7334 15.5875 24.6469 15.2076 23.532 15.204V13.4997C23.532 13.1873 23.2764 12.9316 22.9639 12.9316H21.8278C21.5153 12.9316 21.2597 13.1873 21.2597 13.4997V15.204H21.1709C18.9092 15.204 17.0528 16.7876 17.2622 19.0919C17.2672 19.1459 17.3304 19.2598 17.3304 19.2598H20.1939Z"
        fill="white" fill-opacity="0.411765" />
    <path
        d="M20.068 22.3965L23.2417 23.9454C23.6856 24.0768 23.9945 24.4886 23.9945 24.9502C23.9945 25.529 23.5258 25.9976 22.947 25.9976H20.593C20.1598 25.9976 19.7338 25.8663 19.3787 25.6248C19.1621 25.4793 18.871 25.5148 18.6863 25.6958L17.4507 26.903C17.1987 27.148 17.2342 27.5563 17.5147 27.7729C18.3846 28.4546 19.471 28.8345 20.5859 28.8381V30.5424C20.5859 30.8548 20.8415 31.1105 21.154 31.1105H22.2902C22.6026 31.1105 22.8583 30.8548 22.8583 30.5424V28.831C24.5128 28.799 26.0644 27.8155 26.6112 26.2497C26.9944 25.1518 26.6307 24.0522 26.075 23.2471L24.6832 22.3965H20.068Z"
        fill="#D9D9D9" />
    <defs>
        <filter id="filter0_d_97_2109" x="0.691406" y="22.4004" width="42.6185" height="21.1626"
            filterUnits="userSpaceOnUse" color-interpolation-filters="sRGB">
            <feFlood flood-opacity="0" result="BackgroundImageFix" />
            <feColorMatrix in="SourceAlpha" type="matrix"
                values="0 0 0 0 0 0 0 0 0 0 0 0 0 0 0 0 0 0 127 0" result="hardAlpha" />
            <feOffset dy="3" />
            <feGaussianBlur stdDeviation="1.5" />
            <feComposite in2="hardAlpha" operator="out" />
            <feColorMatrix type="matrix" values="0 0 0 0 0 0 0 0 0 0 0 0 0 0 0 0 0 0 0.423529 0" />
            <feBlend mode="normal" in2="BackgroundImageFix" result="effect1_dropShadow_97_2109" />
            <feBlend mode="normal" in="SourceGraphic" in2="effect1_dropShadow_97_2109"
                result="shape" />
        </filter>
    </defs>
</svg>
