<svg width="32" height="23" viewBox="0 0 32 23" fill="none" xmlns="http://www.w3.org/2000/svg">
<path d="M26.2845 20.1163C26.6389 19.9155 26.8569 19.544 26.8561 19.1423V9.44205L29.7138 8.36262V14.5845C29.7138 15.2042 30.2256 15.7065 30.8569 15.7065C31.4882 15.7065 32 15.2042 32 14.5845V6.73C31.9738 6.27212 31.6867 5.86791 31.2581 5.68536L16.3979 0.0750174C16.1334 -0.0250058 15.8405 -0.0250058 15.576 0.0750174L0.731718 5.68536C0.290808 5.8523 0 6.26837 0 6.73225C0 7.19613 0.290808 7.6122 0.731718 7.77914L5.13723 9.43756V19.1423C5.13641 19.544 5.3544 19.9154 5.70875 20.1163C8.81838 21.9526 12.3681 22.9476 15.9967 23C19.6255 22.9497 23.1758 21.9546 26.2845 20.1163Z" fill="white"/>
</svg>
