<svg width="27" height="27" viewBox="0 0 27 27" fill="none" xmlns="http://www.w3.org/2000/svg">
<path d="M26.8242 13.5137C26.8242 6.15383 20.8579 0.1875 13.498 0.1875C6.1382 0.1875 0.171875 6.15383 0.171875 13.5137C0.171875 20.8735 6.1382 26.8398 13.498 26.8398C20.8545 26.8317 26.8161 20.8701 26.8242 13.5137ZM1.57463 13.5137C1.57463 6.92854 6.91292 1.59025 13.498 1.59025C20.0832 1.59025 25.4214 6.92855 25.4214 13.5137C25.4214 20.0988 20.0832 25.4371 13.498 25.4371C6.91596 25.4297 1.58197 20.0957 1.57463 13.5137Z" fill="#81878F"/>
<path d="M20.2874 19.3085C20.5214 19.1735 20.6653 18.9237 20.6647 18.6535V12.1298L22.5513 11.4039V15.5883C22.5513 16.005 22.8891 16.3429 23.3059 16.3429C23.7227 16.3429 24.0605 16.005 24.0605 15.5883V10.3059C24.0432 9.99796 23.8537 9.72612 23.5708 9.60335L13.7607 5.83024C13.5861 5.76297 13.3927 5.76297 13.2181 5.83024L3.41859 9.60335C3.12753 9.71562 2.93555 9.99544 2.93555 10.3074C2.93555 10.6194 3.12753 10.8992 3.41859 11.0115L6.32692 12.1268V18.6535C6.32637 18.9237 6.47028 19.1735 6.70421 19.3085C8.75705 20.5435 11.1004 21.2127 13.4958 21.2479C15.8915 21.2141 18.2352 20.5448 20.2874 19.3085ZM5.79339 10.3059L13.4905 7.3425L21.1983 10.3059L13.5011 13.2693L5.79339 10.3059ZM7.83615 18.2098V12.7079L13.2287 14.7831C13.4033 14.8503 13.5967 14.8503 13.7713 14.7831L19.1555 12.7116V18.2106C15.6606 20.2598 11.3308 20.2595 7.83615 18.2098Z" fill="#81878F"/>
</svg>
