<svg width="22" height="23" viewBox="0 0 22 23" fill="none" xmlns="http://www.w3.org/2000/svg">
<path d="M20.952 9.84548L12.4455 1.33897C11.5437 0.437223 10.0841 0.437054 9.18212 1.33897L0.675614 9.84548C-0.226221 10.7473 -0.226264 12.2071 0.675614 13.1089L9.18212 21.6154C10.084 22.5172 11.5436 22.5174 12.4455 21.6154L20.952 13.1089C21.8539 12.2071 21.8539 10.7473 20.952 9.84548ZM19.9962 12.1531L11.4897 20.6596C11.1161 21.0331 10.5116 21.0332 10.1379 20.6596L1.63144 12.1531C1.25793 11.7796 1.25788 11.1749 1.63144 10.8013L10.1379 2.29484C10.5115 1.92129 11.1161 1.92125 11.4897 2.29484L19.9962 10.8013C19.9962 10.8133 20.2761 11.0325 20.2761 11.4772C20.2761 11.7325 20.1768 11.9725 19.9962 12.1531Z" fill="#0956C6"/>
<path d="M15.7719 9.37889C15.719 9.2987 15.8822 9.47247 13.3963 6.94779C13.1344 6.68178 12.7065 6.67845 12.4405 6.94041C12.1745 7.20231 12.1712 7.63022 12.4331 7.89616L13.6299 9.11166H7.09698C6.72368 9.11166 6.4211 9.4143 6.4211 9.78754V14.1808C6.4211 14.554 6.72368 14.8566 7.09698 14.8566C7.47028 14.8566 7.77285 14.554 7.77285 14.1808V10.4634H13.5571L12.3603 11.6789C11.9385 12.1073 12.2477 12.829 12.8419 12.829C13.0166 12.829 13.1913 12.7617 13.3235 12.6273L15.5416 10.3746C15.9181 10.1598 15.9676 9.675 15.7719 9.37889Z" fill="#0956C6"/>
</svg>
