<svg width="41" height="40" viewBox="0 0 41 40" fill="none" xmlns="http://www.w3.org/2000/svg">
<path d="M37.7722 32.7273H31.4086C27.3986 32.7273 24.136 29.4648 24.136 25.4548C24.136 21.4447 27.3986 18.1822 31.4086 18.1822H37.7722C38.2747 18.1822 38.6813 17.7756 38.6813 17.2731V14.5458C38.6813 12.6395 37.2026 11.0892 35.3344 10.9388L30.1134 1.81965C29.6296 0.976257 28.8483 0.373454 27.9135 0.123146C26.9831 -0.125458 26.0102 0.005108 25.1774 0.489788L7.27972 10.9095H4.13633C2.13088 10.9095 0.5 12.5403 0.5 14.5458V36.3637C0.5 38.3691 2.1308 40 4.13633 40H35.0449C37.0504 40 38.6813 38.3692 38.6813 36.3637V33.6364C38.6813 33.1339 38.2747 32.7273 37.7722 32.7273ZM31.2409 7.44968L33.2217 10.9095H25.2982L31.2409 7.44968ZM10.8933 10.9095L26.0927 2.0611C26.5037 1.82051 26.9839 1.75659 27.443 1.87914C27.9073 2.0034 28.2944 2.30348 28.535 2.72339L28.5368 2.72671L14.4822 10.9095H10.8933Z" fill="#0956C6"/>
<path d="M37.7731 20H31.4095C28.4018 20 25.9551 22.4467 25.9551 25.4545C25.9551 28.4622 28.4018 30.9089 31.4095 30.9089H37.7731C39.277 30.9089 40.5003 29.6856 40.5003 28.1817V22.7272C40.5003 21.2233 39.277 20 37.7731 20ZM31.4095 27.2726C30.4073 27.2726 29.5914 26.4567 29.5914 25.4545C29.5914 24.4522 30.4073 23.6363 31.4095 23.6363C32.4118 23.6363 33.2277 24.4522 33.2277 25.4545C33.2278 26.4567 32.4119 27.2726 31.4095 27.2726Z" fill="#0956C6"/>
</svg>
