<svg width="19" height="15" viewBox="0 0 19 15" fill="none" xmlns="http://www.w3.org/2000/svg">
<ellipse cx="6.76173" cy="6.94243" rx="3.35439" ry="3.35098" transform="rotate(-6.0001 6.76173 6.94243)" fill="#F8E81C"/>
<path fill-rule="evenodd" clip-rule="evenodd" d="M5.92668 0.951965L6.26028 0.916902L6.88745 2.87265L5.71984 2.99537L5.92668 0.951965ZM8.80531 1.26748L9.11633 1.39313L8.75192 3.41439L7.66337 2.97459L8.80531 1.26748ZM11.1924 2.87448L11.4125 3.12763L10.1702 4.76315L9.39991 3.8771L11.1924 2.87448ZM12.57 5.41892L12.6454 5.74576L10.7807 6.6066L10.5166 5.46266L12.57 5.41892ZM12.6036 8.31222L12.5168 8.63623L10.4662 8.52086L10.77 7.38683L12.6036 8.31222ZM11.2948 10.8742L11.0704 11.1235L9.29567 10.0897L10.0813 9.21724L11.2948 10.8742ZM8.93311 12.5483L8.6179 12.663L7.53622 10.9171L8.63946 10.5155L8.93311 12.5483ZM6.06277 12.9316L5.7306 12.8849L5.59519 10.8355L6.75781 10.9989L6.06277 12.9316ZM3.34378 11.9356L3.0724 11.7384L3.91497 9.86535L4.86479 10.5554L3.34378 11.9356ZM1.41188 9.80342L1.25959 9.50454L2.86068 8.21815L3.39368 9.26422L1.41188 9.80342ZM0.685046 7.00287L0.690899 6.66749L2.7085 6.28334L2.68801 7.45719L0.685046 7.00287ZM1.34672 4.18561L1.50934 3.89222L3.47113 4.50025L2.90194 5.52708L1.34672 4.18561ZM3.23206 2.0116L3.51015 1.82403L4.98208 3.25641L4.00876 3.91293L3.23206 2.0116Z" fill="#F8E81C"/>
<path fill-rule="evenodd" clip-rule="evenodd" d="M16.0721 14.0924C16.1306 14.0961 16.1897 14.098 16.2492 14.098C17.7681 14.098 18.9994 12.8641 18.9994 11.3419C18.9994 9.90673 17.9047 8.72776 16.5065 8.59776C16.0431 6.62296 14.2737 5.15283 12.1617 5.15283C9.6967 5.15283 7.69846 7.15527 7.69846 9.62542C7.69846 9.7671 7.70504 9.90723 7.7179 10.0456C7.51891 9.98182 7.30684 9.9474 7.08674 9.9474C6.17853 9.9474 5.40688 10.5333 5.12756 11.3484C4.46578 11.4504 3.95898 12.0234 3.95898 12.7151C3.95898 13.4389 4.51388 14.0328 5.2206 14.093V14.098H16.0721V14.0924Z" fill="#DDDDDD"/>
</svg>
